<svg width="26" height="25" viewBox="0 0 26 25" fill="none" xmlns="http://www.w3.org/2000/svg">
<path d="M25.1597 8.80321L17.3654 7.66263L13.8811 0.550211C13.7859 0.355478 13.6294 0.197836 13.436 0.102015C12.9509 -0.139084 12.3615 0.0618317 12.119 0.550211L8.63477 7.66263L0.840471 8.80321C0.625583 8.83412 0.429114 8.93612 0.278692 9.09068C0.0968411 9.27888 -0.00336732 9.53207 8.64032e-05 9.79463C0.00354013 10.0572 0.110373 10.3076 0.297111 10.4909L5.93639 16.0269L4.60408 23.8441C4.57284 24.0259 4.59282 24.2129 4.66177 24.3839C4.73072 24.5549 4.84586 24.703 4.99416 24.8115C5.14245 24.9199 5.31796 24.9844 5.50078 24.9975C5.68359 25.0106 5.86641 24.9719 6.02848 24.8857L13.0001 21.1951L19.9716 24.8857C20.162 24.9877 20.383 25.0217 20.5948 24.9847C21.129 24.8919 21.4881 24.3819 21.396 23.8441L20.0637 16.0269L25.703 10.4909C25.8565 10.3394 25.9578 10.1416 25.9885 9.92525C26.0714 9.38432 25.6969 8.88358 25.1597 8.80321Z" fill="#2AAE37"/>
</svg>
